<?xml version="1.0" encoding="utf-8"?>
<!-- Generator: Adobe Illustrator 16.0.0, SVG Export Plug-In . SVG Version: 6.00 Build 0)  -->
<!DOCTYPE svg PUBLIC "-//W3C//DTD SVG 1.1//EN" "http://www.w3.org/Graphics/SVG/1.1/DTD/svg11.dtd">
<svg version="1.1" id="Capa_1" xmlns="http://www.w3.org/2000/svg" xmlns:xlink="http://www.w3.org/1999/xlink" x="0px" y="0px"
	 width="1200px" height="600px" viewBox="0 0 1200 600" enable-background="new 0 0 1200 600" xml:space="preserve">
<rect fill="#FFFFFF" width="1200" height="598.665"/>
<g>
	<polygon fill="#21434C" points="0,232.767 77.524,201.465 91.797,235.678 0,279.683 	"/>
	<path fill="#ECC18A" d="M98.58,231.199l10.642-4.467l7.364,2.131c0,0,40.3-16.347,50.623-21.437c1.6-0.79-0.976-7.412-2.587-6.647
		c-4.325,2.054-20.079,7.027-20.079,7.027l-0.725-2.292c0,0,18.52-7.038,26.82-9.935c1.936-0.675,0.391-8.892-1.484-8.063
		c-7.958,3.516-28.563,11.165-28.563,11.165l0.129-1.35c0,0,20.466-6.701,29.103-11.529c1.814-1.014-2.271-8.046-4.165-7.191
		c-7.385,3.333-27.73,10.553-27.73,10.553l-0.29-0.966l23.341-10.508l-2.991-5.552l-42.542,15.101l0.329-2.333l8.493-6.564
		l-1.989-7.516l-16,6.126l-8.188,17.538l-13.076,4.22L98.58,231.199z"/>
	<polygon fill="#FFFFFF" points="78.179,201.2 85.016,198.71 98.58,231.199 91.797,235.678 	"/>
</g>
<g>
	<path fill="#F9BA39" d="M210.606,427.716c-2.643,6.078-9.712,8.863-15.79,6.221l-75.812-32.962
		c-6.077-2.643-8.862-9.713-6.22-15.79l19.67-45.241c1.284-2.954,3.614-5.13,6.367-6.282c2.913-1.221,6.298-1.297,9.422,0.062
		l75.812,32.962c6.077,2.643,8.862,9.713,6.22,15.79L210.606,427.716z"/>
	<polygon fill="#FAD378" points="170.252,386.713 118.212,400.594 195.125,434.064 	"/>
	<g>
		<polygon fill="#FAD378" points="165.466,397.095 224.982,367.51 148.981,334.225 		"/>
		<g>
			<path fill="#2D2D2D" d="M165.337,396.601l59.486-29.41l0.016,0.646l-75.916-33.48l0.197-0.168L165.337,396.601z M165.596,397.589
				l-16.754-63.327l-0.076-0.288l0.273,0.119l76.086,33.09l0.7,0.305l-0.684,0.342L165.596,397.589z"/>
		</g>
	</g>
</g>
<g>
	<polygon fill="#21434C" points="52.36,598.665 117.693,547.348 140.36,576.681 115.693,598.665 	"/>
	<path fill="#ECC18A" d="M145.63,570.493l8.98-7.25h7.667c0,0,34.167-26.907,42.667-34.667c1.317-1.203-2.999-6.849-4.333-5.666
		c-3.583,3.176-17.333,12.333-17.333,12.333l-1.333-2c0,0,15.833-11.91,23-17c1.671-1.187-2.097-8.649-3.667-7.333
		c-6.667,5.59-24.333,18.666-24.333,18.666l-0.25-1.332c0,0,17.796-12.127,24.75-19.166c1.46-1.479-4.418-7.098-6-5.75
		c-6.167,5.255-23.703,17.847-23.703,17.847l-0.547-0.848l19.5-16.583l-4.417-4.501l-36.667,26.333l-0.333-2.333l6.333-8.667
		l-4-6.666l-13.667,10.333l-2.988,19.123l-11.388,7.689L145.63,570.493z"/>
	<polygon fill="#FFFFFF" points="117.693,547.348 123.568,543.056 145.63,570.493 140.36,576.681 	"/>
</g>
<g>
	<circle fill="#F1634F" cx="393.112" cy="527.137" r="36.266"/>
	<circle fill="#FFF9FF" cx="393.112" cy="527.137" r="24.625"/>
	<circle fill="#4F382A" cx="393.112" cy="527.137" r="22.387"/>
	<path fill="#FFF9FF" d="M377.39,510.999c-1.887,1.893-4.951,1.897-6.843,0.01l-4.477-4.464c-1.892-1.887-1.897-4.95-0.01-6.843l0,0
		c1.887-1.893,4.951-1.897,6.843-0.01l4.477,4.464C379.272,506.043,379.277,509.106,377.39,510.999L377.39,510.999z"/>
</g>
<g>
	<path fill="#21434F" d="M1149.942,498.622c2.306,6.213-0.861,13.119-7.074,15.426l-111.562,41.414
		c-6.212,2.306-13.119-0.861-15.426-7.074L949.062,368.39c-2.307-6.213,0.861-13.12,7.074-15.426l111.561-41.414
		c6.213-2.306,13.12,0.861,15.427,7.074L1149.942,498.622z"/>
	<path fill="#FFFDF9" d="M1139.897,492.11c2.076,5.592-0.773,11.808-6.366,13.884l-100.404,37.271
		c-5.592,2.076-11.808-0.774-13.883-6.366L959.106,374.9c-2.075-5.591,0.774-11.807,6.366-13.883l100.405-37.272
		c5.592-2.075,11.808,0.775,13.883,6.366L1139.897,492.11z"/>
	<path fill="#649DA6" d="M1037.321,330.293c1.922,5.178-0.718,10.934-5.895,12.855l-25.313,9.396
		c-5.177,1.922-10.933-0.717-12.854-5.895l0,0c-1.922-5.177,0.717-10.933,5.895-12.854l25.313-9.396
		C1029.643,322.477,1035.399,325.116,1037.321,330.293L1037.321,330.293z"/>
	
		<rect x="1000.368" y="319.355" transform="matrix(0.9375 -0.348 0.348 0.9375 -50.4873 372.1625)" fill="#649DA6" width="20.499" height="14.5"/>
	
		<rect x="1004.058" y="321.966" transform="matrix(0.9375 -0.348 0.348 0.9375 -50.4885 372.1347)" fill="#94B4B3" width="13.121" height="9.279"/>
	
		<rect x="974.393" y="362.066" transform="matrix(0.9375 -0.348 0.348 0.9375 -62.6885 379.6296)" fill="#7ECECD" width="102.024" height="4.5"/>
	
		<rect x="977.526" y="370.504" transform="matrix(0.9375 -0.348 0.348 0.9375 -65.4291 381.2506)" fill="#7ECECD" width="102.023" height="4.5"/>
	<line fill="#7ECECD" x1="985.152" y1="402.46" x2="1080.797" y2="366.954"/>
	
		<rect x="985.878" y="393.004" transform="matrix(0.9375 -0.348 0.348 0.9375 -72.7372 385.5602)" fill="#7ECECD" width="102.024" height="4.5"/>
	
		<rect x="989.01" y="401.441" transform="matrix(0.9375 -0.348 0.348 0.9375 -75.4779 387.1813)" fill="#7ECECD" width="102.023" height="4.5"/>
	
		<rect x="993.534" y="413.629" transform="matrix(0.9375 -0.348 0.348 0.9375 -79.4365 389.5177)" fill="#7ECECD" width="102.023" height="4.5"/>
	
		<rect x="996.666" y="422.066" transform="matrix(0.9375 -0.348 0.348 0.9375 -82.1766 391.125)" fill="#7ECECD" width="102.023" height="4.5"/>
	
		<rect x="1026.528" y="500.817" transform="matrix(0.9375 -0.348 0.348 0.9375 -114.0917 391.0102)" fill="#E66852" width="9.523" height="24.5"/>
	
		<rect x="1040.392" y="475.004" transform="matrix(0.9375 -0.348 0.348 0.9375 -107.7212 394.8465)" fill="#E66852" width="9.523" height="44.501"/>
	
		<rect x="1055.299" y="455.004" transform="matrix(0.9375 -0.348 0.348 0.9375 -102.2614 399.1808)" fill="#E66852" width="9.524" height="58.5"/>
	
		<rect x="1079.324" y="485.762" transform="matrix(0.9375 -0.348 0.348 0.9375 -104.7826 408.2643)" fill="#E66852" width="9.524" height="20.102"/>
	
		<rect x="1093.812" y="463.428" transform="matrix(0.9375 -0.348 0.348 0.9375 -98.9554 412.3505)" fill="#E66852" width="9.523" height="36.512"/>
	
		<rect x="1109.157" y="445.86" transform="matrix(0.9375 -0.348 0.348 0.9375 -93.8878 417.067)" fill="#E66852" width="9.523" height="48.001"/>
</g>
<g>
	<polygon fill="#21434C" points="1200,600 1149.266,514.288 1115.991,534.738 1148.784,600 	"/>
	<path fill="#ECC18A" d="M1111.983,527.137l-7.746-9.789l-8.332-2.412c0,0-29.656-36.596-36.738-46.723
		c-1.097-1.57,5.164-5.635,6.286-4.079c3.011,4.177,15.411,17.3,15.411,17.3l2.005-1.502c0,0-13.897-16.422-20.272-23.566
		c-1.487-1.665,4.684-7.648,6.023-5.89c5.692,7.467,21.26,25.585,21.26,25.585l0.642-1.2c0,0-15.971-17.247-21.572-26.196
		c-1.176-1.88,6.776-5.429,8.12-3.637c5.242,6.988,20.803,24.601,20.803,24.601l0.829-0.643l-16.585-22.063l6.053-2.935
		l32.532,36.83l1.011-2.136l-4.475-10.317l6.202-5.146l11.981,14.225l-2.068,19.311l10.239,10.969L1111.983,527.137z"/>
	<polygon fill="#FFFFFF" points="1148.784,513.693 1143.591,507.723 1111.983,527.137 1115.991,534.738 	"/>
</g>
<g>
	<polygon fill="#21434C" points="958.428,602.473 900.774,551.155 880.77,580.488 902.539,602.473 	"/>
	<path fill="#ECC18A" d="M876.12,574.301l-7.925-7.25h-6.766c0,0-30.151-26.907-37.652-34.667c-1.163-1.203,2.646-6.849,3.824-5.666
		c3.162,3.176,15.296,12.333,15.296,12.333l1.177-2c0,0-13.973-11.91-20.297-17c-1.476-1.187,1.851-8.649,3.235-7.333
		c5.884,5.59,21.474,18.666,21.474,18.666l0.221-1.332c0,0-15.703-12.127-21.841-19.166c-1.289-1.479,3.899-7.098,5.295-5.75
		c5.441,5.255,20.917,17.847,20.917,17.847l0.482-0.848l-17.208-16.583l3.897-4.501l32.358,26.333l0.294-2.333l-5.589-8.667
		l3.529-6.666l12.061,10.333l2.637,19.123l10.05,7.689L876.12,574.301z"/>
	<polygon fill="#FFFFFF" points="900.774,551.155 895.589,546.863 876.12,574.301 880.77,580.488 	"/>
</g>
<g>
	<polygon fill="#21434C" points="1200.122,149.938 1101.563,131.644 1083.249,169.33 1199.922,198.118 	"/>
	<path fill="#ECC18A" d="M1074.632,165.941l-13.527-2.686l-9.385,3.504c0,0-51.237-9.586-64.355-12.97
		c-2.033-0.524,1.275-7.786,3.323-7.288c5.496,1.336,25.529,3.629,25.529,3.629l0.934-2.483c0,0-23.547-3.919-34.102-5.41
		c-2.461-0.348-0.459-9.062,1.923-8.546c10.115,2.188,36.316,6.362,36.316,6.362l-0.159-1.362c0,0-26.026-3.226-37.002-6.641
		c-2.304-0.718,2.926-8.669,5.333-8.129c9.387,2.103,35.259,5.883,35.259,5.883l0.372-1.046l-29.672-6.619l3.831-6.235l54.094,7.906
		l-0.406-2.338l-10.785-5.224l2.564-8.074l20.343,3.433l10.349,16.549l16.629,1.996L1074.632,165.941z"/>
	<polygon fill="#FFFFFF" points="1100.73,131.488 1092.038,130.152 1074.632,165.941 1083.249,169.33 	"/>
</g>
</svg>
