<?xml version="1.0" encoding="utf-8"?>
<!-- Generator: Adobe Illustrator 16.0.0, SVG Export Plug-In . SVG Version: 6.00 Build 0)  -->
<!DOCTYPE svg PUBLIC "-//W3C//DTD SVG 1.1//EN" "http://www.w3.org/Graphics/SVG/1.1/DTD/svg11.dtd">
<svg version="1.1" id="Capa_1" xmlns="http://www.w3.org/2000/svg" xmlns:xlink="http://www.w3.org/1999/xlink" x="0px" y="0px"
	 width="1200px" height="800px" viewBox="0 0 1200 800" enable-background="new 0 0 1200 800" xml:space="preserve">
<g>
	<polygon fill="#2F4784" stroke="#000000" stroke-miterlimit="10" points="0,477.103 159.637,400 194.135,477.103 0,570.098 	"/>
	<polygon fill="#DCDDE0" stroke="#000000" stroke-miterlimit="10" points="159.637,400 194.135,477.103 225.691,473.35 
		180.369,382.029 	"/>
	<polyline fill="#FFF3D7" stroke="#000000" stroke-miterlimit="10" points="180.369,382.029 227.691,319.683 237.357,316.016 
		243.691,323.35 231.024,352.016 225.691,370.683 244.024,361.016 283.691,335.683 293.357,347.016 248.357,382.029 
		298.024,358.016 303.691,371.35 259.691,407.35 311.691,386.35 313.691,394.683 271.024,429.566 312.357,410.35 313.691,416.683 
		290.691,438.35 260.357,459.016 225.691,473.35 	"/>
</g>
<g>
	<polygon fill="#2F4784" stroke="#000000" stroke-miterlimit="10" points="1200,573.41 1026.226,496.307 988.673,573.41 
		1200,666.405 	"/>
	<polygon fill="#DCDDE0" stroke="#000000" stroke-miterlimit="10" points="1026.226,496.307 988.673,573.41 954.323,569.657 
		1003.659,478.336 	"/>
	<polyline fill="#FFF3D7" stroke="#000000" stroke-miterlimit="10" points="1003.659,478.336 952.146,415.99 941.623,412.323 
		934.729,419.657 948.517,448.323 954.323,466.99 934.366,457.323 891.186,431.99 880.664,443.323 929.648,478.336 875.583,454.323 
		869.416,467.657 917.312,503.657 860.707,482.657 858.529,490.99 904.975,525.873 859.98,506.657 858.529,512.99 883.566,534.657 
		916.585,555.323 954.323,569.657 	"/>
</g>
<g>
	<polygon fill="#2F4784" stroke="#000000" stroke-miterlimit="10" points="655.04,822.369 573.619,664.89 649.753,628.306 
		748,819.836 	"/>
	<polygon fill="#DCDDE0" stroke="#000000" stroke-miterlimit="10" points="573.619,664.89 649.753,628.306 645.143,596.864 
		555.089,644.656 	"/>
	<polyline fill="#FFF3D7" stroke="#000000" stroke-miterlimit="10" points="555.089,644.656 491.478,599.049 487.549,589.485 
		494.708,582.955 523.708,594.835 542.513,599.66 532.351,581.595 505.948,542.634 517.013,532.661 553.238,576.692 
		527.882,527.697 541.056,521.67 578.242,564.673 555.833,513.265 564.109,511.039 600.14,552.739 579.806,511.944 586.101,510.44 
		608.386,532.841 629.871,562.599 645.143,596.864 	"/>
</g>
</svg>
