<?xml version="1.0" encoding="utf-8"?>
<!-- Generator: Adobe Illustrator 16.0.0, SVG Export Plug-In . SVG Version: 6.00 Build 0)  -->
<!DOCTYPE svg PUBLIC "-//W3C//DTD SVG 1.1//EN" "http://www.w3.org/Graphics/SVG/1.1/DTD/svg11.dtd">
<svg version="1.1" id="Capa_1" xmlns="http://www.w3.org/2000/svg" xmlns:xlink="http://www.w3.org/1999/xlink" x="0px" y="0px"
	 width="1200px" height="800px" viewBox="0 0 1200 800" enable-background="new 0 0 1200 800" xml:space="preserve">
<ellipse fill="#E5E5E5" stroke="#000000" stroke-miterlimit="10" cx="128.024" cy="516.016" rx="102" ry="108"/>
<path fill="#FFFFFF" stroke="#000000" stroke-miterlimit="10" d="M128.024,516.016v-91V516.016z"/>
<line fill="#FFFFFF" stroke="#000000" stroke-miterlimit="10" x1="207.524" y1="516.016" x2="128.024" y2="516.016"/>
<g>
	<radialGradient id="SVGID_1_" cx="745.5708" cy="584.1323" r="180" gradientUnits="userSpaceOnUse">
		<stop  offset="0.1" style="stop-color:#000000"/>
		<stop  offset="0.1478" style="stop-color:#191604"/>
		<stop  offset="0.2051" style="stop-color:#2F2908"/>
		<stop  offset="0.2728" style="stop-color:#40370B"/>
		<stop  offset="0.3565" style="stop-color:#4B410D"/>
		<stop  offset="0.474" style="stop-color:#52470F"/>
		<stop  offset="0.8" style="stop-color:#54490F"/>
		<stop  offset="1" style="stop-color:#000000"/>
	</radialGradient>
	<circle opacity="0.25" fill="url(#SVGID_1_)" cx="745.571" cy="584.132" r="180"/>
	<radialGradient id="SVGID_2_" cx="1032.1372" cy="297.5659" r="6" gradientUnits="userSpaceOnUse">
		<stop  offset="0" style="stop-color:#D6E098"/>
		<stop  offset="0.0582" style="stop-color:#B2BA7E"/>
		<stop  offset="0.1353" style="stop-color:#888F61"/>
		<stop  offset="0.2184" style="stop-color:#646847"/>
		<stop  offset="0.3066" style="stop-color:#454831"/>
		<stop  offset="0.4013" style="stop-color:#2B2E1F"/>
		<stop  offset="0.5049" style="stop-color:#181911"/>
		<stop  offset="0.622" style="stop-color:#0A0B07"/>
		<stop  offset="0.764" style="stop-color:#020302"/>
		<stop  offset="1" style="stop-color:#000000"/>
	</radialGradient>
	<circle fill="url(#SVGID_2_)" cx="1032.137" cy="297.566" r="6"/>
	<radialGradient id="SVGID_3_" cx="1010.7358" cy="318.9673" r="6" gradientUnits="userSpaceOnUse">
		<stop  offset="0" style="stop-color:#D6E098"/>
		<stop  offset="0.0582" style="stop-color:#B2BA7E"/>
		<stop  offset="0.1353" style="stop-color:#888F61"/>
		<stop  offset="0.2184" style="stop-color:#646847"/>
		<stop  offset="0.3066" style="stop-color:#454831"/>
		<stop  offset="0.4013" style="stop-color:#2B2E1F"/>
		<stop  offset="0.5049" style="stop-color:#181911"/>
		<stop  offset="0.622" style="stop-color:#0A0B07"/>
		<stop  offset="0.764" style="stop-color:#020302"/>
		<stop  offset="1" style="stop-color:#000000"/>
	</radialGradient>
	<circle fill="url(#SVGID_3_)" cx="1010.736" cy="318.967" r="6"/>
	<radialGradient id="SVGID_4_" cx="1000.1294" cy="329.5737" r="45" gradientUnits="userSpaceOnUse">
		<stop  offset="0.05" style="stop-color:#000000"/>
		<stop  offset="0.0963" style="stop-color:#070B04"/>
		<stop  offset="0.3007" style="stop-color:#243513"/>
		<stop  offset="0.485" style="stop-color:#3A541F"/>
		<stop  offset="0.641" style="stop-color:#466726"/>
		<stop  offset="0.75" style="stop-color:#4B6E28"/>
		<stop  offset="0.7582" style="stop-color:#506F26"/>
		<stop  offset="0.8242" style="stop-color:#727214"/>
		<stop  offset="0.86" style="stop-color:#7F740D"/>
		<stop  offset="0.8875" style="stop-color:#7B710D"/>
		<stop  offset="0.9121" style="stop-color:#71670C"/>
		<stop  offset="0.9355" style="stop-color:#5E560A"/>
		<stop  offset="0.9583" style="stop-color:#453F07"/>
		<stop  offset="0.9803" style="stop-color:#242104"/>
		<stop  offset="1" style="stop-color:#000000"/>
	</radialGradient>
	<circle opacity="0.2" fill="url(#SVGID_4_)" cx="1000.129" cy="329.574" r="45"/>
	<line fill="none" x1="798.604" y1="531.099" x2="1010.736" y2="318.967"/>
	<radialGradient id="SVGID_5_" cx="798.604" cy="531.0991" r="120" gradientUnits="userSpaceOnUse">
		<stop  offset="0" style="stop-color:#000000"/>
		<stop  offset="0.73" style="stop-color:#834A29"/>
		<stop  offset="1" style="stop-color:#000000"/>
	</radialGradient>
	<circle opacity="0.15" fill="url(#SVGID_5_)" cx="798.604" cy="531.099" r="120"/>
	<radialGradient id="SVGID_6_" cx="798.604" cy="531.0991" r="60" gradientUnits="userSpaceOnUse">
		<stop  offset="0.15" style="stop-color:#FFFFFF"/>
		<stop  offset="0.2052" style="stop-color:#E2D7D7"/>
		<stop  offset="0.2877" style="stop-color:#BBA1A0"/>
		<stop  offset="0.3589" style="stop-color:#9E7978"/>
		<stop  offset="0.4154" style="stop-color:#8C6160"/>
		<stop  offset="0.45" style="stop-color:#865857"/>
		<stop  offset="0.4644" style="stop-color:#7F5453"/>
		<stop  offset="0.5944" style="stop-color:#49302F"/>
		<stop  offset="0.7066" style="stop-color:#211616"/>
		<stop  offset="0.7955" style="stop-color:#090606"/>
		<stop  offset="0.85" style="stop-color:#000000"/>
		<stop  offset="0.8571" style="stop-color:#040201"/>
		<stop  offset="0.8644" style="stop-color:#110804"/>
		<stop  offset="0.8719" style="stop-color:#251309"/>
		<stop  offset="0.8794" style="stop-color:#422211"/>
		<stop  offset="0.8871" style="stop-color:#68351A"/>
		<stop  offset="0.8946" style="stop-color:#954B26"/>
		<stop  offset="0.9" style="stop-color:#BA5E2F"/>
		<stop  offset="0.9045" style="stop-color:#A6542A"/>
		<stop  offset="0.9159" style="stop-color:#7B3E1F"/>
		<stop  offset="0.9278" style="stop-color:#552B15"/>
		<stop  offset="0.9402" style="stop-color:#361B0E"/>
		<stop  offset="0.953" style="stop-color:#1E0F08"/>
		<stop  offset="0.9666" style="stop-color:#0D0703"/>
		<stop  offset="0.9815" style="stop-color:#030201"/>
		<stop  offset="1" style="stop-color:#000000"/>
	</radialGradient>
	<circle opacity="0.5" fill="url(#SVGID_6_)" cx="798.604" cy="531.099" r="60"/>
	<radialGradient id="SVGID_7_" cx="798.604" cy="531.0991" r="50" gradientUnits="userSpaceOnUse">
		<stop  offset="0.15" style="stop-color:#FFFFFF"/>
		<stop  offset="0.2824" style="stop-color:#C2C2C2"/>
		<stop  offset="0.4253" style="stop-color:#888888"/>
		<stop  offset="0.5636" style="stop-color:#575757"/>
		<stop  offset="0.6936" style="stop-color:#313131"/>
		<stop  offset="0.8134" style="stop-color:#161616"/>
		<stop  offset="0.9192" style="stop-color:#060606"/>
		<stop  offset="1" style="stop-color:#000000"/>
	</radialGradient>
	<circle fill="url(#SVGID_7_)" cx="798.604" cy="531.099" r="50"/>
	<polyline opacity="0.03" fill="none" stroke="#FFFFFF" stroke-width="2" stroke-miterlimit="10" points="798.604,531.099 
		853.068,667.875 798.604,531.099 744.14,394.323 798.604,531.099 661.828,585.563 798.604,531.099 935.38,476.635 798.604,531.099 
		820.78,672.768 798.604,531.099 776.428,389.43 798.604,531.099 656.935,553.275 798.604,531.099 940.273,508.923 798.604,531.099 
		859.004,585.561 798.604,531.099 738.204,476.637 798.604,531.099 744.142,591.5 798.604,531.099 853.066,470.699 798.604,531.099 
		805.257,688.911 798.604,531.099 791.951,373.288 798.604,531.099 640.792,537.752 798.604,531.099 956.416,524.446 
		798.604,531.099 854.34,578.407 798.604,531.099 742.868,483.792 798.604,531.099 751.296,586.835 798.604,531.099 
		845.912,475.362 798.604,531.099 873.776,610.013 798.604,531.099 723.432,452.185 798.604,531.099 719.69,606.271 
		798.604,531.099 877.518,455.927 798.604,531.099 879.977,709.381 798.604,531.099 717.231,352.817 798.604,531.099 
		620.322,612.472 798.604,531.099 976.886,449.726 798.604,531.099 835.442,532.08 798.604,531.099 761.766,530.119 
		798.604,531.099 797.624,567.937 798.604,531.099 799.584,494.261 798.604,531.099 821.531,677.702 798.604,531.099 
		775.677,384.497 798.604,531.099 652.001,554.026 798.604,531.099 945.207,508.172 798.604,531.099 816.285,577.583 
		798.604,531.099 780.923,484.616 798.604,531.099 752.12,548.78 798.604,531.099 845.088,513.418 798.604,531.099 806.384,623.831 
		798.604,531.099 790.824,438.368 798.604,531.099 705.873,538.879 798.604,531.099 891.335,523.319 798.604,531.099 
		853.412,624.445 798.604,531.099 743.796,437.753 798.604,531.099 705.258,585.907 798.604,531.099 891.95,476.292 
		798.604,531.099 830.138,611.206 798.604,531.099 767.07,450.993 798.604,531.099 718.498,562.633 798.604,531.099 878.71,499.565 
		798.604,531.099 893.076,626.403 798.604,531.099 704.132,435.795 798.604,531.099 703.3,625.571 798.604,531.099 893.908,436.627 
		798.604,531.099 964.308,628.702 798.604,531.099 632.9,433.497 798.604,531.099 701.001,696.803 798.604,531.099 896.207,365.396 
			"/>
	<radialGradient id="SVGID_8_" cx="1010.7358" cy="318.9673" r="90" gradientUnits="userSpaceOnUse">
		<stop  offset="0.64" style="stop-color:#000000"/>
		<stop  offset="0.7169" style="stop-color:#010200"/>
		<stop  offset="0.7446" style="stop-color:#050902"/>
		<stop  offset="0.7643" style="stop-color:#0C1405"/>
		<stop  offset="0.7802" style="stop-color:#162508"/>
		<stop  offset="0.7938" style="stop-color:#233B0D"/>
		<stop  offset="0.8" style="stop-color:#2B4810"/>
		<stop  offset="0.8004" style="stop-color:#2B4710"/>
		<stop  offset="0.8163" style="stop-color:#2C2809"/>
		<stop  offset="0.8319" style="stop-color:#2D1204"/>
		<stop  offset="0.8467" style="stop-color:#2E0501"/>
		<stop  offset="0.86" style="stop-color:#2E0000"/>
		<stop  offset="0.8658" style="stop-color:#250000"/>
		<stop  offset="0.881" style="stop-color:#140000"/>
		<stop  offset="0.8999" style="stop-color:#090000"/>
		<stop  offset="0.9264" style="stop-color:#020000"/>
		<stop  offset="1" style="stop-color:#000000"/>
	</radialGradient>
	<circle opacity="0.5" fill="url(#SVGID_8_)" cx="1010.736" cy="318.967" r="90"/>
	<radialGradient id="SVGID_9_" cx="1010.647" cy="319.0562" r="0.7188" gradientUnits="userSpaceOnUse">
		<stop  offset="0.1" style="stop-color:#5D6070"/>
		<stop  offset="0.1687" style="stop-color:#4F515F"/>
		<stop  offset="0.3267" style="stop-color:#32343D"/>
		<stop  offset="0.488" style="stop-color:#1C1D22"/>
		<stop  offset="0.6521" style="stop-color:#0D0D0F"/>
		<stop  offset="0.8206" style="stop-color:#030304"/>
		<stop  offset="1" style="stop-color:#000000"/>
	</radialGradient>
	<circle fill="url(#SVGID_9_)" cx="1010.647" cy="319.056" r="0.719"/>
	<radialGradient id="SVGID_10_" cx="839.9204" cy="489.7817" r="21.0078" gradientUnits="userSpaceOnUse">
		<stop  offset="0.1" style="stop-color:#222300"/>
		<stop  offset="0.1128" style="stop-color:#212200"/>
		<stop  offset="0.3965" style="stop-color:#0F0F00"/>
		<stop  offset="0.6887" style="stop-color:#040400"/>
		<stop  offset="1" style="stop-color:#000000"/>
	</radialGradient>
	<circle fill="url(#SVGID_10_)" cx="839.921" cy="489.783" r="21.007"/>
	<radialGradient id="SVGID_11_" cx="832.0786" cy="497.6235" r="14.0791" gradientUnits="userSpaceOnUse">
		<stop  offset="0.1" style="stop-color:#113244"/>
		<stop  offset="0.1484" style="stop-color:#0F2C3D"/>
		<stop  offset="0.3516" style="stop-color:#091922"/>
		<stop  offset="0.5594" style="stop-color:#040B0F"/>
		<stop  offset="0.7727" style="stop-color:#010304"/>
		<stop  offset="1" style="stop-color:#000000"/>
	</radialGradient>
	<circle fill="url(#SVGID_11_)" cx="832.079" cy="497.624" r="14.079"/>
	<radialGradient id="SVGID_12_" cx="839.1685" cy="490.5356" r="21.4502" gradientUnits="userSpaceOnUse">
		<stop  offset="0.1" style="stop-color:#261918"/>
		<stop  offset="0.1467" style="stop-color:#221615"/>
		<stop  offset="0.4196" style="stop-color:#0F0A0A"/>
		<stop  offset="0.7006" style="stop-color:#040202"/>
		<stop  offset="1" style="stop-color:#000000"/>
	</radialGradient>
	<circle fill="url(#SVGID_12_)" cx="839.168" cy="490.535" r="21.451"/>
	<radialGradient id="SVGID_13_" cx="840.3423" cy="489.3618" r="25.9766" gradientUnits="userSpaceOnUse">
		<stop  offset="0.1" style="stop-color:#000000"/>
		<stop  offset="0.1299" style="stop-color:#000000"/>
		<stop  offset="1" style="stop-color:#000000"/>
	</radialGradient>
	<circle fill="url(#SVGID_13_)" cx="840.342" cy="489.362" r="25.977"/>
</g>
</svg>
