<?xml version="1.0" encoding="utf-8"?>
<!-- Generator: Adobe Illustrator 16.0.0, SVG Export Plug-In . SVG Version: 6.00 Build 0)  -->
<!DOCTYPE svg PUBLIC "-//W3C//DTD SVG 1.1//EN" "http://www.w3.org/Graphics/SVG/1.1/DTD/svg11.dtd">
<svg version="1.1" id="Capa_1" xmlns="http://www.w3.org/2000/svg" xmlns:xlink="http://www.w3.org/1999/xlink" x="0px" y="0px"
	 width="1200px" height="800px" viewBox="0 0 1200 800" enable-background="new 0 0 1200 800" xml:space="preserve">
<g id="Mesa">
	<rect y="705.091" fill="#405955" width="1200" height="31.499"/>
	<rect y="736.59" fill="#9B9A7B" width="1200" height="63.41"/>
</g>
<g id="PC">
	<polygon fill="#3D3D3D" points="818.024,685.516 379.524,685.516 379.524,400.016 380.993,395 383.961,391.016 387.024,388.016 
		389.993,386.985 807.941,386.985 812.025,390.016 816.025,394.1 818.024,398.183 	"/>
	<rect x="393.691" y="400.516" fill="#F0F1F5" width="409.833" height="271.167"/>
	<circle fill="#FFFFFF" cx="598.608" cy="393.454" r="4.063"/>
	<polygon fill="#E9E9E9" stroke="#383838" points="326.028,702.091 872.468,702.091 876.471,696.224 877.472,689.016 
		320.524,689.016 321.931,696.224 	"/>
	<polygon fill="#666666" points="560.399,689.141 560.399,692.016 565.524,696.641 632.649,696.641 637.399,692.891 
		637.399,689.141 	"/>
</g>
<g id="Tasa" opacity="0.8">
	<ellipse fill="#D2E9F7" stroke="#5D7C8C" stroke-miterlimit="10" cx="1028.694" cy="695.24" rx="81" ry="3.25"/>
	<path fill="#608191" stroke="#9BB3BF" stroke-miterlimit="10" d="M1109.694,695.24c0,1.795-39.015,9.787-83.75,9.787
		s-78.25-7.992-78.25-9.787s33.515,3.287,78.25,3.287S1109.694,693.445,1109.694,695.24z"/>
	<path fill="#E0EDF5" stroke="#C3D0FC" stroke-miterlimit="10" d="M1091.324,620.453l-3.31-14.779l8.36,1.369
		c0,0,10.873-0.036,14.038,0.561c4.366,0.823,10.514,9.069,11.755,13.337c0.682,2.348-0.466,11.149-3.9,17.815
		s-9.157,11.197-10.955,12.855c-11.685,10.786-37.038,23.535-37.038,23.535l9.407-16.459c0,0,22.419-10.532,28.325-18.032
		c2.139-2.716,7-12.721,5.979-16.023c-0.361-1.169-2.991-6.156-5.668-6.762C1105.533,617.239,1092.603,620.539,1091.324,620.453z"/>
	<ellipse fill="#E0EDF5" cx="1025.51" cy="602.27" rx="60.243" ry="1.625"/>
	<path fill="#B7C7DF" d="M1086.81,602.29c0-0.364-28.028,1.22-61.3,1.22s-59.437-1.584-59.437-1.22
		c0,0.362,26.165,2.533,59.437,2.533S1086.81,602.652,1086.81,602.29z"/>
	<path opacity="0.4" fill="#083044" d="M1106.524,617.859c-0.812,0.176-5.868,0.915-1.332-2.075
		c3.88-2.558,9.198,2.952,10.417,5.916c0.632,1.536,0.577,5.775,0,7.333c-0.884,2.386-2.652,6.765-5,9.751
		c-3.02,3.841-6.626,6.067-6.626,6.067l0,0c0,0,4.143-2.766,6.334-7.15c2.291-4.584,4.916-9.896,4.208-12.417
		c-0.406-1.446-0.718-2.002-1.206-2.945C1112.234,620.242,1109.155,617.289,1106.524,617.859z"/>
	<path fill="#5F3713" stroke="#3A1B13" stroke-miterlimit="10" d="M962.824,624.02c0,0-0.253,4.521,0,6
		c1.343,7.86,7.789,22.125,12.125,29.5c4.852,8.25,15.635,27.986,24.625,33c6.029,3.362,20.625,2.5,27.5,2.5
		c0.889,0,2.004-0.04,3.273-0.11c8.723-0.484,19.317,0.662,24.727-2.39c8.9-5.022,19.282-24.75,24.125-33
		c4.22-7.188,10.761-21.069,12.125-28.75c0.295-1.661,0-6.75,0-6.75s-49.312,0-65.749,0
		C1009.887,624.02,962.824,624.02,962.824,624.02z"/>
	<path opacity="0.7" fill="#E0EDF5" stroke="#E8F3F9" stroke-width="0.5" stroke-miterlimit="10" d="M962.933,624.02h128.5
		c0,0-0.651-7.989-1.25-10.875c-0.529-2.552-3.264-10.875-3.264-10.875H966.183c0,0-2.857,8.251-3.25,10.875
		C962.512,615.958,962.933,624.02,962.933,624.02z"/>
	<path opacity="0.5" fill="#020202" stroke="#5F3713" stroke-miterlimit="10" d="M1039.824,674.24
		c-0.574-4.884-3.75-13.64-10.75-26.75c-5.826-10.912-19.375-18.965-19.375-18.965s68.056-4.371,73.625,2.215
		c5.383,6.365-8.285,28.211-12.75,35.25c-4.479,7.061-16,22-25,25.28c-2.167,0.79-28.25,2.827-28.25,2.827
		S1041.324,686.99,1039.824,674.24z"/>
	<path opacity="0.5" stroke="#5F3713" stroke-miterlimit="10" d="M999.324,668.52c-3-11.44-3.25-21.75-1-32.75
		c1.729-8.45-9.681-9.586-15.25-3c-5.383,6.365,2.619,24.912,5.457,32.75c2.839,7.84,7.253,16.339,14.798,19.89
		C1007.579,687.41,1001.147,675.471,999.324,668.52z"/>
	<ellipse fill="#CCC9C6" cx="989.789" cy="639.99" rx="3.215" ry="5"/>
	<path opacity="0.5" stroke="#5F3713" stroke-miterlimit="10" d="M1080.074,624.02c0,0,6.877,2.856,7.75,4.505
		c1.241,2.344,0.706,11.465,0.706,11.465s2.441-6.838,2.794-9.22c0.247-1.669,0-6.75,0-6.75H1080.074z"/>
	<path opacity="0.5" stroke="#5F3713" stroke-miterlimit="10" d="M981.761,624.02c0,0,1.229,0.804-1.604,3.083
		c-2.416,1.943-8.583,1.422-12.166,4.138c-2.114,1.603-0.532,12.984-0.532,12.984s-4.285-11.073-4.638-13.455
		c-0.247-1.669,0-6.75,0-6.75H981.761z"/>
	<path opacity="0.5" fill="#020202" stroke="#5F3713" stroke-miterlimit="10" d="M1091.324,623.581c0,0-28.183-2.484-63.875-2.484
		c-35.691,0-64.625,2.484-64.625,2.484s28.934-1.161,64.625-1.161C1063.141,622.419,1091.324,623.581,1091.324,623.581z"/>
	<path opacity="0.3" fill="#020202" d="M976.407,613.258c0,3.738,0.521,6.769-2.333,6.769s-5.167-3.03-5.167-6.769
		s2.313-6.769,5.167-6.769S976.407,609.52,976.407,613.258z"/>
	<path fill="#FFFFFF" d="M985.19,616.761c0,2.395,0.427,4.335-1.914,4.335s-4.239-1.94-4.239-4.335s1.898-4.335,4.239-4.335
		S985.19,614.367,985.19,616.761z"/>
	<path fill="#FFFFFF" d="M1074.824,607.747c0,2.395-0.659,12.28-3,12.28s-15.75-3.745-15.75-6.14s0.295-6.022,2.636-6.022
		S1074.824,605.352,1074.824,607.747z"/>
	<path opacity="0.3" fill="#020202" d="M1086.81,608.816c0,2.395-0.659,12.28-3,12.28s-4.369-4.263-4.369-6.657
		s-5.646-6.093-3.306-6.093S1086.81,606.421,1086.81,608.816z"/>
</g>
<g id="Left">
	<g>
		<polygon opacity="0.7" fill="#FFD350" points="37.569,175.176 149.569,171.676 155.069,286.676 41.069,291.676 		"/>
		<polygon opacity="0.7" fill="#605F5D" points="40.319,296.426 150.819,291.676 153.051,286.765 41.069,291.676 38.988,222.429 		
			"/>
		<g>
			<polygon opacity="0.7" fill="#FFD350" points="155.069,188.631 265.833,171.676 285.134,285.178 172.564,303.863 			"/>
			<polygon opacity="0.7" fill="#605F5D" points="172.392,308.668 281.517,290.654 283.141,285.509 172.564,303.863 
				162.165,235.369 			"/>
		</g>
		<path opacity="0.8" fill="#DA6D2C" d="M96.683,219.708c1.508-4.917,11.715-12.916,17.581-13.25
			c5.417-0.31,14.654,9.092,14.958,14.51c0.653,11.654-29.811,35.935-29.811,35.935s-34.634-18.765-35.977-30.476
			c-0.601-5.246,8.716-16.787,15.777-17.709c10-1.307,17.385,11.083,17.864,10.925"/>
		<circle fill="#B5A299" stroke="#878787" cx="222.548" cy="235.369" r="35"/>
		<path opacity="0.5" fill="#005501" stroke="#878787" stroke-miterlimit="10" d="M222.548,235.369l7.434-34.203
			c6.387-0.217,16.665,6.825,23.53,17.874c8.286,13.336,1.993,30.11,1.439,29.564L222.548,235.369z"/>
		<path opacity="0.7" fill="#2B3E9E" d="M222.548,270.369v-35l32.403,13.235c-3.674,5.323-3.289,9.36-13.383,16.139
			C233.184,270.374,227.858,269.316,222.548,270.369z"/>
	</g>
	<path opacity="0.7" fill="#751336" d="M187.548,232.917l35,2.401v35c-11.015-1.68-13.86,1.326-26.896-12.605
		C186.979,248.443,188.752,239.167,187.548,232.917z"/>
</g>
<g opacity="0.8">
	<polyline fill="#F0F1F5" stroke="#D6D37B" stroke-width="2" points="685.789,417.104 643.835,462.338 624.055,495.458 
		578.575,515.975 557.857,537.299 514.35,537.299 471.361,585.764 431.998,649.093 427.854,659.433 	"/>
	<polyline fill="none" stroke="#DB0909" stroke-width="2" points="427.336,657.496 470.843,511.45 513.832,560.562 557.857,464.922 
		599.811,536.006 642.798,417.104 688.378,433.904 	"/>
	<polyline fill="#F0F1F5" stroke="#4F4F4F" stroke-width="2" points="685.789,523.082 643.835,513.387 601.882,607.736 
		557.857,542.468 504.509,596.105 461.52,619.368 427.336,658.14 	"/>
	<g>
		<polyline fill="none" stroke="#686868" points="707.024,657.496 405.583,657.496 405.583,464.922 405.583,417.104 413.87,417.104 
					"/>
		<line fill="none" stroke="#686868" x1="405.583" y1="464.922" x2="413.352" y2="464.922"/>
		<line fill="none" stroke="#686868" x1="405.583" y1="512.583" x2="413.352" y2="512.583"/>
		<line fill="none" stroke="#686868" x1="405.583" y1="560.891" x2="413.352" y2="560.891"/>
		<line fill="none" stroke="#686868" x1="405.583" y1="609.037" x2="413.352" y2="609.037"/>
		<line fill="none" stroke="#686868" x1="448.571" y1="656.858" x2="448.571" y2="647.166"/>
		<line fill="none" stroke="#686868" x1="492.467" y1="656.858" x2="492.467" y2="647.166"/>
		<line fill="none" stroke="#686868" x1="535.327" y1="656.858" x2="535.327" y2="647.166"/>
		<line fill="none" stroke="#686868" x1="578.963" y1="656.858" x2="578.963" y2="647.166"/>
		<line fill="none" stroke="#686868" x1="621.822" y1="656.858" x2="621.822" y2="647.166"/>
		<line fill="none" stroke="#686868" x1="663.839" y1="656.858" x2="663.839" y2="647.166"/>
		<line fill="none" stroke="#686868" x1="705.145" y1="656.858" x2="705.145" y2="647.166"/>
	</g>
</g>
<g opacity="0.8">
	<polyline fill="none" stroke="#878686" points="794.057,464.604 719.743,464.604 719.743,426.552 719.743,417.104 721.786,417.104 
			"/>
	<line fill="none" stroke="#878686" x1="719.743" y1="426.552" x2="721.658" y2="426.552"/>
	<line fill="none" stroke="#878686" x1="719.743" y1="435.97" x2="721.658" y2="435.97"/>
	<line fill="none" stroke="#878686" x1="719.743" y1="445.515" x2="721.658" y2="445.515"/>
	<line fill="none" stroke="#878686" x1="719.743" y1="455.029" x2="721.658" y2="455.029"/>
	<line fill="none" stroke="#878686" x1="730.34" y1="464.478" x2="730.34" y2="462.563"/>
	<line fill="none" stroke="#878686" x1="741.163" y1="464.478" x2="741.163" y2="462.563"/>
	<line fill="none" stroke="#878686" x1="751.729" y1="464.478" x2="751.729" y2="462.563"/>
	<line fill="none" stroke="#878686" x1="762.486" y1="464.478" x2="762.486" y2="462.563"/>
	<line fill="none" stroke="#878686" x1="773.052" y1="464.478" x2="773.052" y2="462.563"/>
	<line fill="none" stroke="#878686" x1="783.411" y1="464.478" x2="783.411" y2="462.563"/>
	<line fill="none" stroke="#878686" x1="793.594" y1="464.478" x2="793.594" y2="462.563"/>
	<rect x="730.34" y="437.137" fill="#3D4F9B" stroke="#878686" width="10.822" height="27.341"/>
	<rect x="741.163" y="426.552" fill="#238B42" stroke="#878686" width="10.566" height="37.926"/>
	<rect x="751.729" y="445.515" fill="#8C1923" stroke="#878686" width="10.757" height="18.963"/>
	<rect x="762.486" y="435.97" fill="#A3A328" stroke="#878686" width="10.566" height="28.508"/>
	<rect x="773.052" y="445.515" fill="#C2428D" stroke="#878686" width="10.358" height="18.963"/>
</g>
<g opacity="0.8">
	<polyline fill="none" stroke="#898989" points="794.264,543.137 719.95,543.137 719.95,505.085 719.95,495.637 721.993,495.637 	
		"/>
	<line fill="none" stroke="#898989" x1="719.95" y1="505.085" x2="721.865" y2="505.085"/>
	<line fill="none" stroke="#898989" x1="719.95" y1="514.503" x2="721.865" y2="514.503"/>
	<line fill="none" stroke="#898989" x1="719.95" y1="524.048" x2="721.865" y2="524.048"/>
	<line fill="none" stroke="#898989" x1="719.95" y1="533.562" x2="721.865" y2="533.562"/>
	<line fill="none" stroke="#898989" x1="730.547" y1="543.011" x2="730.547" y2="541.096"/>
	<line fill="none" stroke="#898989" x1="741.37" y1="543.011" x2="741.37" y2="541.096"/>
	<line fill="none" stroke="#898989" x1="751.936" y1="543.011" x2="751.936" y2="541.096"/>
	<line fill="none" stroke="#898989" x1="762.693" y1="543.011" x2="762.693" y2="541.096"/>
	<line fill="none" stroke="#898989" x1="773.259" y1="543.011" x2="773.259" y2="541.096"/>
	<line fill="none" stroke="#898989" x1="783.618" y1="543.011" x2="783.618" y2="541.096"/>
	<line fill="none" stroke="#898989" x1="793.801" y1="543.011" x2="793.801" y2="541.096"/>
	<rect x="730.547" y="515.67" fill="#3D4F9B" stroke="#898989" width="10.822" height="27.341"/>
	<rect x="741.37" y="505.085" fill="#238B42" stroke="#898989" width="10.566" height="37.926"/>
	<rect x="751.936" y="524.048" fill="#8C1923" stroke="#898989" width="10.757" height="18.963"/>
	<rect x="762.693" y="514.503" fill="#A3A328" stroke="#898989" width="10.566" height="28.508"/>
	<rect x="773.259" y="524.048" fill="#C2428D" stroke="#898989" width="10.358" height="18.963"/>
</g>
<g id="Left_1_">
	<g>
		<polygon opacity="0.7" fill="#FFD350" points="1169.284,172.773 1057.283,169.273 1051.783,284.273 1165.784,289.273 		"/>
		<polygon opacity="0.7" fill="#605F5D" points="1166.534,294.023 1056.033,289.273 1053.801,284.361 1165.784,289.273 
			1167.864,220.026 		"/>
		<g>
			<polygon opacity="0.7" fill="#FFD350" points="1051.783,186.228 941.019,169.273 921.718,282.775 1034.288,301.46 			"/>
			<polygon opacity="0.7" fill="#605F5D" points="1034.46,306.266 925.335,288.251 923.71,283.106 1034.288,301.46 
				1044.687,232.966 			"/>
		</g>
		<g>
			<polyline fill="none" stroke="#999999" stroke-width="2" points="1033.408,210.587 1019.094,221.759 1011.792,230.452 
				997.614,234.277 990.594,239.499 977.954,237.455 963.188,249.517 948.777,266.066 947.086,268.876 			"/>
			<polyline fill="none" stroke="#999999" stroke-width="2" points="947.027,268.289 966.528,227.901 976.71,244.189 
				993.994,218.471 1002.843,241.094 1020.917,208.568 1033.372,215.59 			"/>
			<polyline fill="none" stroke="#999999" stroke-width="2" points="1028.429,241.377 1016.697,236.59 1000.077,262.031 
				990.351,241 972.332,254.078 958.75,258.817 946.997,268.476 			"/>
			<g>
				<polyline fill="none" stroke="#999999" points="1028.286,281.427 940.707,267.267 949.752,211.318 951.999,197.425 
					954.406,197.814 				"/>
				<line fill="none" stroke="#999999" x1="949.752" y1="211.318" x2="952.009" y2="211.683"/>
				<line fill="none" stroke="#999999" x1="947.514" y1="225.165" x2="949.771" y2="225.53"/>
				<line fill="none" stroke="#999999" x1="945.245" y1="239.2" x2="947.501" y2="239.565"/>
				<line fill="none" stroke="#999999" x1="942.983" y1="253.188" x2="945.24" y2="253.553"/>
				<line fill="none" stroke="#999999" x1="953.226" y1="269.101" x2="953.681" y2="266.284"/>
				<line fill="none" stroke="#999999" x1="965.979" y1="271.162" x2="966.435" y2="268.346"/>
				<line fill="none" stroke="#999999" x1="978.432" y1="273.176" x2="978.887" y2="270.36"/>
				<line fill="none" stroke="#999999" x1="991.11" y1="275.226" x2="991.566" y2="272.41"/>
				<line fill="none" stroke="#999999" x1="1003.562" y1="277.239" x2="1004.017" y2="274.423"/>
				<line fill="none" stroke="#999999" x1="1015.769" y1="279.212" x2="1016.225" y2="276.396"/>
				<line fill="none" stroke="#999999" x1="1027.77" y1="281.153" x2="1028.225" y2="278.336"/>
			</g>
		</g>
	</g>
</g>
<g id="Cel">
	<rect x="104.691" y="645.683" fill="#D6D6D6" stroke="#686868" stroke-miterlimit="10" width="102.667" height="56.666"/>
	<path fill="#3D3D3D" d="M193.358,570.891c0-6.627-5.373-12-12-12h-51.333c-6.627,0-12,5.373-12,12v108c0,6.627,5.373,12,12,12
		h51.333c6.627,0,12-5.373,12-12V570.891z"/>
	<path fill="#FFFFFF" stroke="#828282" stroke-miterlimit="10" d="M185.825,581.691c0-5.302-4.298-9.6-9.6-9.6h-41.067
		c-5.302,0-9.6,4.298-9.6,9.6v86.4c0,5.302,4.298,9.6,9.6,9.6h41.067c5.302,0,9.6-4.298,9.6-9.6V581.691z"/>
	<g>
		<polyline fill="#F0F1F5" stroke="#D6D37B" stroke-width="0.5" points="176.68,610.409 169.962,619.346 166.795,625.889 
			159.512,629.943 156.194,634.156 149.228,634.156 142.344,643.732 136.041,656.244 135.377,658.287 		"/>
		<polyline fill="none" stroke="#DB0909" stroke-width="0.5" points="135.293,657.904 142.261,629.049 149.145,638.752 
			156.194,619.856 162.913,633.901 169.796,610.409 177.095,613.728 		"/>
		<polyline fill="#F0F1F5" stroke="#4F4F4F" stroke-width="0.5" points="176.68,631.347 169.962,629.432 163.244,648.073 
			156.194,635.177 147.652,645.775 140.768,650.371 135.293,658.031 		"/>
		<g>
			<polyline fill="none" stroke="#686868" stroke-width="0.5" points="180.081,657.904 131.811,657.904 131.811,619.856 
				131.811,610.409 133.138,610.409 			"/>
			<line fill="none" stroke="#686868" stroke-width="0.5" x1="131.811" y1="619.856" x2="133.055" y2="619.856"/>
			<line fill="none" stroke="#686868" stroke-width="0.5" x1="131.811" y1="629.273" x2="133.055" y2="629.273"/>
			<line fill="none" stroke="#686868" stroke-width="0.5" x1="131.811" y1="638.817" x2="133.055" y2="638.817"/>
			<line fill="none" stroke="#686868" stroke-width="0.5" x1="131.811" y1="648.33" x2="133.055" y2="648.33"/>
			<line fill="none" stroke="#686868" stroke-width="0.5" x1="138.694" y1="657.778" x2="138.694" y2="655.863"/>
			<line fill="none" stroke="#686868" stroke-width="0.5" x1="145.723" y1="657.778" x2="145.723" y2="655.863"/>
			<line fill="none" stroke="#686868" stroke-width="0.5" x1="152.586" y1="657.778" x2="152.586" y2="655.863"/>
			<line fill="none" stroke="#686868" stroke-width="0.5" x1="159.574" y1="657.778" x2="159.574" y2="655.863"/>
			<line fill="none" stroke="#686868" stroke-width="0.5" x1="166.437" y1="657.778" x2="166.437" y2="655.863"/>
			<line fill="none" stroke="#686868" stroke-width="0.5" x1="173.166" y1="657.778" x2="173.166" y2="655.863"/>
			<line fill="none" stroke="#686868" stroke-width="0.5" x1="179.78" y1="657.778" x2="179.78" y2="655.863"/>
		</g>
	</g>
	<g>
		<polyline fill="none" stroke="#878686" stroke-width="0.5" points="154.803,600.713 131.999,600.713 131.999,584.89 
			131.999,580.962 132.626,580.962 		"/>
		<line fill="none" stroke="#878686" stroke-width="0.5" x1="131.999" y1="584.89" x2="132.587" y2="584.89"/>
		<line fill="none" stroke="#878686" stroke-width="0.5" x1="131.999" y1="588.807" x2="132.587" y2="588.807"/>
		<line fill="none" stroke="#878686" stroke-width="0.5" x1="131.999" y1="592.777" x2="132.587" y2="592.777"/>
		<line fill="none" stroke="#878686" stroke-width="0.5" x1="131.999" y1="596.732" x2="132.587" y2="596.732"/>
		<line fill="none" stroke="#878686" stroke-width="0.5" x1="135.251" y1="600.662" x2="135.251" y2="599.866"/>
		<line fill="none" stroke="#878686" stroke-width="0.5" x1="138.572" y1="600.662" x2="138.572" y2="599.866"/>
		<line fill="none" stroke="#878686" stroke-width="0.5" x1="141.815" y1="600.662" x2="141.815" y2="599.866"/>
		<line fill="none" stroke="#878686" stroke-width="0.5" x1="145.116" y1="600.662" x2="145.116" y2="599.866"/>
		<line fill="none" stroke="#878686" stroke-width="0.5" x1="148.358" y1="600.662" x2="148.358" y2="599.866"/>
		<line fill="none" stroke="#878686" stroke-width="0.5" x1="151.536" y1="600.662" x2="151.536" y2="599.866"/>
		<line fill="none" stroke="#878686" stroke-width="0.5" x1="154.661" y1="600.662" x2="154.661" y2="599.866"/>
		<rect x="135.251" y="589.292" fill="#3D4F9B" stroke="#878686" stroke-width="0.5" width="3.321" height="11.369"/>
		<rect x="138.572" y="584.89" fill="#238B42" stroke="#878686" stroke-width="0.5" width="3.243" height="15.771"/>
		<rect x="141.815" y="592.777" fill="#8C1923" stroke="#878686" stroke-width="0.5" width="3.301" height="7.885"/>
		<rect x="145.116" y="588.807" fill="#A3A328" stroke="#878686" stroke-width="0.5" width="3.242" height="11.854"/>
		<rect x="148.358" y="592.777" fill="#C2428D" stroke="#878686" stroke-width="0.5" width="3.178" height="7.885"/>
	</g>
	<g>
		<polyline fill="none" stroke="#878686" stroke-width="0.5" points="183.568,600.713 160.764,600.713 160.764,584.89 
			160.764,580.962 161.391,580.962 		"/>
		<line fill="none" stroke="#878686" stroke-width="0.5" x1="160.764" y1="584.89" x2="161.352" y2="584.89"/>
		<line fill="none" stroke="#878686" stroke-width="0.5" x1="160.764" y1="588.807" x2="161.352" y2="588.807"/>
		<line fill="none" stroke="#878686" stroke-width="0.5" x1="160.764" y1="592.777" x2="161.352" y2="592.777"/>
		<line fill="none" stroke="#878686" stroke-width="0.5" x1="160.764" y1="596.732" x2="161.352" y2="596.732"/>
		<line fill="none" stroke="#878686" stroke-width="0.5" x1="164.016" y1="600.662" x2="164.016" y2="599.866"/>
		<line fill="none" stroke="#878686" stroke-width="0.5" x1="167.337" y1="600.662" x2="167.337" y2="599.866"/>
		<line fill="none" stroke="#878686" stroke-width="0.5" x1="170.58" y1="600.662" x2="170.58" y2="599.866"/>
		<line fill="none" stroke="#878686" stroke-width="0.5" x1="173.88" y1="600.662" x2="173.88" y2="599.866"/>
		<line fill="none" stroke="#878686" stroke-width="0.5" x1="177.123" y1="600.662" x2="177.123" y2="599.866"/>
		<line fill="none" stroke="#878686" stroke-width="0.5" x1="180.301" y1="600.662" x2="180.301" y2="599.866"/>
		<line fill="none" stroke="#878686" stroke-width="0.5" x1="183.426" y1="600.662" x2="183.426" y2="599.866"/>
		<rect x="164.016" y="589.292" fill="#3D4F9B" stroke="#878686" stroke-width="0.5" width="3.321" height="11.369"/>
		<rect x="167.337" y="584.89" fill="#238B42" stroke="#878686" stroke-width="0.5" width="3.243" height="15.771"/>
		<rect x="170.58" y="592.777" fill="#8C1923" stroke="#878686" stroke-width="0.5" width="3.301" height="7.885"/>
		<rect x="173.88" y="588.807" fill="#A3A328" stroke="#878686" stroke-width="0.5" width="3.242" height="11.854"/>
		<rect x="177.123" y="592.777" fill="#C2428D" stroke="#878686" stroke-width="0.5" width="3.178" height="7.885"/>
	</g>
	<ellipse fill="#FFFFFF" stroke="#6D6D6D" stroke-miterlimit="10" cx="176.19" cy="565.682" rx="1.5" ry="1.667"/>
	<rect x="104.691" y="674.016" fill="#B5B0B0" stroke="#6D6D6D" stroke-miterlimit="10" width="102.667" height="28.333"/>
</g>
<g>
	<ellipse opacity="0.8" fill="#FF6C93" stroke="#878787" cx="758.079" cy="610.5" rx="37.523" ry="34.909"/>
	<path opacity="0.8" fill="#FCE510" stroke="#878787" stroke-miterlimit="10" d="M758.079,610.5l7.97-34.113
		c6.848-0.218,17.867,6.806,25.227,17.826c8.883,13.302,2.137,30.034,1.544,29.488L758.079,610.5z"/>
	<path opacity="0.8" fill="#3D52A0" d="M737.148,639.477l20.931-28.978l34.74,13.201c-2.045,7.11-12.295,18.565-24.843,20.725
		C736.167,649.899,731.524,629.112,737.148,639.477z"/>
</g>
<g opacity="0.7">
	
		<rect x="1064.457" y="182.149" transform="matrix(0.9995 0.0306 -0.0306 0.9995 7.5421 -33.9099)" opacity="0.7" fill="#FFD350" stroke="#070707" stroke-width="0.5" stroke-miterlimit="10" width="92.751" height="94.25"/>
	
		<rect x="1075.061" y="198.669" transform="matrix(0.9995 0.0306 -0.0306 0.9995 6.6892 -33.9544)" fill="#FFD350" stroke="#070707" stroke-width="0.5" stroke-miterlimit="10" width="73.749" height="5.5"/>
	
		<rect x="1074.671" y="211.413" transform="matrix(0.9995 0.0306 -0.0306 0.9995 7.0792 -33.9365)" fill="#FFD350" stroke="#070707" stroke-width="0.5" stroke-miterlimit="10" width="73.749" height="5.5"/>
	
		<rect x="1074.141" y="221.306" transform="matrix(0.9995 0.0306 -0.0306 0.9995 7.5933 -33.3165)" fill="#FFD350" stroke="#070707" stroke-width="0.5" stroke-miterlimit="10" width="33.999" height="19.706"/>
	
		<rect x="1114.872" y="222.539" transform="matrix(0.9995 0.0306 -0.0306 0.9995 7.6448 -34.5268)" fill="#FFD350" stroke="#070707" stroke-width="0.5" stroke-miterlimit="10" width="33" height="19.706"/>
	
		<rect x="1073.343" y="246.393" transform="matrix(0.9995 0.0306 -0.0306 0.9995 8.4081 -33.8828)" fill="#FFD350" stroke="#070707" stroke-width="0.5" stroke-miterlimit="10" width="73.749" height="22.25"/>
	
		<rect x="1138.883" y="188.147" transform="matrix(0.9995 0.0306 -0.0306 0.9995 6.3994 -34.9522)" fill="#FFD350" stroke="#070707" stroke-width="0.5" stroke-miterlimit="10" width="10.25" height="6.5"/>
</g>
</svg>
